<svg width="782" height="877" viewBox="0 0 782 877" fill="none" xmlns="http://www.w3.org/2000/svg">
<path opacity="0.3" d="M438.333 35C215.578 35 35 215.578 35 438.333C35 661.088 215.578 841.667 438.333 841.667" stroke="#3B82F6" stroke-width="70"/>
<path opacity="0.6" d="M438.333 156C282.405 156 156 282.405 156 438.333C156 594.262 282.405 720.667 438.333 720.667" stroke="#3B82F6" stroke-width="70"/>
<path d="M438.333 277C349.231 277 277 349.231 277 438.333C277 527.436 349.231 599.667 438.333 599.667" stroke="#3B82F6" stroke-width="70"/>
<path d="M720.668 498.833C754.081 498.833 781.168 471.746 781.168 438.333C781.168 404.92 754.081 377.833 720.668 377.833C687.254 377.833 660.168 404.92 660.168 438.333C660.168 471.746 687.254 498.833 720.668 498.833Z" fill="#3B82F6"/>
</svg>
