<svg width="1442" height="1133" viewBox="0 0 1442 1133" fill="none" xmlns="http://www.w3.org/2000/svg">
<path d="M1003 255C1245.08 255 1441.33 451.248 1441.33 693.333H1441.33C1441.15 935.265 1244.97 1131.33 1003 1131.33V1061.33C1205.63 1061.33 1370.04 897.711 1371.33 695.383L1371.33 693C1371.15 489.728 1206.31 325 1003 325C799.688 325 634.667 490.795 634.667 694.333H634.332C634.152 802.612 546.321 890.333 438 890.333V889.665C329.721 889.485 242 801.654 242 693.333C242 584.901 329.901 497 438.333 497V567C368.561 567 312 623.561 312 693.333C312 763.105 368.561 819.667 438.333 819.667V820.33C507.952 820.15 564.333 763.661 564.333 694H564.668C564.848 452.18 760.914 255 1003 255Z" fill="#1E90FF"/>
<path d="M1003 376C1178.26 376 1320.33 518.075 1320.33 693.333H1320.33C1320.15 868.439 1178.15 1010.33 1003 1010.33V940.333C1139.07 940.333 1249.47 830.462 1250.33 694.6L1250.33 693C1250.15 556.555 1139.49 446 1003 446C866.562 446 755.667 557.573 755.667 694.333H755.332C755.152 869.439 613.148 1011.33 438 1011.33V1010.67C262.895 1010.49 121 868.48 121 693.333C121 518.075 263.075 376 438.333 376V446C301.735 446 191 556.735 191 693.333C191 829.932 301.734 940.667 438.333 940.667V941.332C574.779 941.152 685.333 830.488 685.333 694H685.668C685.848 519.054 827.692 376 1003 376Z" fill="#EF233C"/>
<path d="M438.333 325C234.908 325 70.0002 489.908 70 693.333C70 896.758 234.908 1061.67 438.333 1061.67V1062.33C641.605 1062.15 806.333 897.314 806.333 694H806.668C806.848 586 894.399 497 1003 497C1111.32 497 1199.15 584.721 1199.33 693C1199.33 693.055 1199.33 693.111 1199.33 693.166C1199.33 693.222 1199.33 693.277 1199.33 693.333C1199.15 801.612 1111.32 889.333 1003 889.333V819.333C1072.72 819.333 1129.24 762.862 1129.33 693.166C1129.24 623.471 1072.72 567 1003 567C933.508 567 876.667 624.279 876.667 694.333H876.332C876.152 936.265 679.974 1132.33 438 1132.33V1131.67C196.068 1131.48 0 935.307 0 693.333C0.000198024 451.248 196.248 255 438.333 255V325Z" fill="#2B2D42"/>
<path d="M1090 87.5C1090 39.1751 1050.82 -5.9371e-06 1002.5 -3.82475e-06C954.175 -1.7124e-06 915 39.1751 915 87.5C915 135.825 954.175 175 1002.5 175C1050.82 175 1090 135.825 1090 87.5Z" fill="#1E90FF"/>
</svg>
